<svg xmlns="http://www.w3.org/2000/svg" width="412" height="420" viewBox="0 0 412 420" version="1.1"><path d="M 154 3.051 C 154 3.955, 61.697 129.991, 57.001 135.500 L 55.296 137.500 56.398 142.422 L 57.500 147.343 112.864 79.672 C 143.314 42.452, 168.460 12, 168.746 12 C 169.031 12, 170.892 12.972, 172.882 14.160 C 180.165 18.508, 174.220 14.079, 164.786 8.127 C 154.490 1.633, 154 1.402, 154 3.051 M 47.288 148.250 C 42.951 153.917, 40.665 157.299, 41.521 156.782 C 42.703 156.068, 49.343 147, 48.685 147 C 48.443 147, 47.814 147.563, 47.288 148.250" stroke="none" fill="#a3211d" fill-rule="evenodd"/><path d="M 19.500 156.665 C 15.091 158.995, 13.013 161.058, 10.894 165.210 L 9 168.920 9 173.500 L 9 178.080 10.991 181.982 C 13.545 186.988, 18.340 190.620, 24.102 191.911 L 28.661 192.932 32.580 191.868 C 34.736 191.283, 38.016 189.659, 39.869 188.260 L 43.238 185.717 45.232 181.209 L 47.226 176.701 46.762 171.875 L 46.298 167.049 43.648 163.044 L 40.998 159.040 37.039 157.020 L 33.080 155 27.790 155.040 L 22.500 155.080 19.500 156.665" stroke="none" fill="#ffffff" fill-rule="evenodd"/><path d="M 205.381 200.807 C 205.697 201.318, 208.108 202.022, 210.739 202.371 C 216.194 203.095, 232.302 208.581, 239 211.997 C 272.333 228.996, 295.252 263.446, 297.711 300.250 L 298.296 309 279.898 309.007 C 269.779 309.011, 232.830 308.508, 197.789 307.888 L 134.078 306.761 122.661 308.413 C 97.798 312.011, 79.279 321.046, 61.209 338.395 L 52.844 346.426 47.532 354.463 C 35.461 372.726, 29 391.724, 29 408.958 L 29 416 163.750 416.193 C 237.863 416.299, 300.750 416.288, 303.500 416.168 C 341.700 414.509, 377.227 391.208, 394.882 356.234 C 399.098 347.882, 401.481 341.211, 403.944 330.863 L 406 322.227 406 308.652 L 406 295.077 403.953 286.289 C 401.136 274.195, 399.619 269.913, 394.464 259.500 C 389.325 249.117, 383.577 241.143, 374.741 232.139 C 360.094 217.212, 346.085 209.168, 323.500 202.715 L 316.500 200.715 260.653 200.297 L 204.806 199.878 205.381 200.807" stroke="none" fill="#1c68fb" fill-rule="evenodd"/><path d="M 280.436 95.699 L 277.975 99.898 266.238 108.292 C 232.746 132.242, 100.752 224.859, 96.059 227.703 C 93.066 229.516, 89.804 231, 88.809 231 C 86.624 231, 86.612 231.302, 88.575 236.940 C 96.815 260.605, 115.853 283.047, 138 295.202 C 143.640 298.297, 154.515 302.662, 163 305.236 L 169.500 307.208 207.500 308.009 C 228.400 308.450, 257.379 308.853, 271.898 308.905 L 298.296 309 297.711 300.250 C 295.252 263.446, 272.333 228.996, 239 211.997 C 232.302 208.581, 216.194 203.095, 210.739 202.371 C 208.108 202.022, 205.707 201.335, 205.404 200.844 L 204.853 199.952 258.676 199.956 L 312.500 199.960 318 198.918 C 355.487 191.814, 386.267 165.926, 399.347 130.500 C 402.990 120.634, 406 106.166, 406 98.526 L 406 92.030 344.448 91.765 L 282.897 91.500 280.436 95.699" stroke="none" fill="#0e1825" fill-rule="evenodd"/><path d="M 154 3.051 C 154 3.955, 61.697 129.991, 57.001 135.500 L 55.296 137.500 56.398 142.422 L 57.500 147.343 112.864 79.672 C 143.314 42.452, 168.460 12, 168.746 12 C 169.031 12, 170.892 12.972, 172.882 14.160 C 180.165 18.508, 174.220 14.079, 164.786 8.127 C 154.490 1.633, 154 1.402, 154 3.051 M 47.288 148.250 C 42.951 153.917, 40.665 157.299, 41.521 156.782 C 42.703 156.068, 49.343 147, 48.685 147 C 48.443 147, 47.814 147.563, 47.288 148.250" stroke="none" fill="#a3211d" fill-rule="evenodd"/><path d="M 94.500 25.017 L 35.500 46.770 35.249 48.635 C 35.028 50.273, 28 151.848, 28 153.397 C 28 153.729, 28.824 154, 29.831 154 C 30.837 154, 33.762 155.064, 36.331 156.364 L 41 158.728 41 157.714 C 41 157.156, 48.119 147.204, 56.821 135.600 C 85.362 97.535, 154.194 3.859, 153.843 3.558 C 153.654 3.397, 126.950 13.053, 94.500 25.017 M 114.903 77.155 C 85.531 113.044, 60.680 143.440, 59.679 144.702 L 57.857 146.997 62.137 166.032 L 66.418 185.066 67.503 184.783 C 68.100 184.627, 108.258 156.600, 156.743 122.500 L 244.897 60.500 243.698 59.363 C 242.219 57.960, 171.506 13.131, 169.646 12.418 L 168.305 11.903 114.903 77.155" stroke="none" fill="#bf2722" fill-rule="evenodd"/><path d="M 248.500 58.873 C 244.505 60.700, 69.528 183.298, 65.228 187.284 C 63.979 188.442, 61.794 191.765, 60.374 194.668 L 57.791 199.948 57.737 205.724 L 57.684 211.500 59.687 216 C 61.866 220.895, 66.765 226.215, 71.500 228.827 L 74.500 230.483 83.087 230.491 L 91.673 230.500 97.587 226.574 C 115.604 214.613, 273.100 103.187, 276.267 100.161 C 278.339 98.181, 280.927 94.717, 282.017 92.465 L 284 88.369 284 83.050 C 284 75.708, 282.297 70.707, 278.145 65.856 L 274.611 61.728 269.556 59.374 L 264.500 57.020 258.500 57.032 L 252.500 57.044 248.500 58.873" stroke="none" fill="#f2f2f2" fill-rule="evenodd"/></svg>