<svg
  width="864"
  height="864"
  viewBox="0 0 864 864"
  fill="none"
  xmlns="http://www.w3.org/2000/svg"
>
  <rect width="288" height="576" fill="url(#paint0_linear)" />
  <g style="mix-blend-mode: multiply">
    <rect y="576" width="288" height="288" fill="url(#paint1_linear)" />
  </g>
  <g style="mix-blend-mode: multiply">
    <rect x="288.002" width="288" height="288" fill="url(#paint2_linear)" />
  </g>
  <g style="mix-blend-mode: multiply">
    <rect x="288" y="288" width="288" height="576" fill="url(#paint3_linear)" />
  </g>
  <g style="mix-blend-mode: multiply">
    <rect x="576" y="288" width="288" height="576" fill="url(#paint4_linear)" />
  </g>
  <g style="mix-blend-mode: multiply">
    <rect x="576" width="288" height="288" fill="url(#paint5_linear)" />
  </g>
  <path
    fillRule="evenodd"
    clipRule="evenodd"
    d="M288.002 288C447.06 288 576.002 416.942 576.002 576V288L288.002 288Z"
    fill="#2169F4"
  />
  <path
    fillRule="evenodd"
    clipRule="evenodd"
    d="M576.298 288C735.219 287.838 863.999 158.958 863.999 0V288L863.998 288V576C863.998 417.042 735.218 288.162 576.298 288H575.999C576.069 288 576.14 288 576.21 288C576.14 288 576.069 288 575.998 288H576.298Z"
    fill="#226DFF"
  />
  <path
    fillRule="evenodd"
    clipRule="evenodd"
    d="M863.998 576C863.998 735.059 735.056 864.001 575.998 864.001H863.998V576Z"
    fill="#226DFF"
  />
  <path
    fillRule="evenodd"
    clipRule="evenodd"
    d="M0 288C0 128.942 128.942 0 288 0H0V288Z"
    fill="#226DFF"
  />
  <path
    fillRule="evenodd"
    clipRule="evenodd"
    d="M1.25889e-05 288C5.63624e-06 447.058 128.942 576 288 576H0L1.25889e-05 288ZM288 576C128.942 576 0 704.943 0 864.001V576H288Z"
    fill="#2169F4"
  />
  <defs>
    <linearGradient
      id="paint0_linear"
      x1="57.6001"
      y1="468"
      x2="57.6001"
      y2="0"
      gradientUnits="userSpaceOnUse"
    >
      <stop stopColor="#15429B" />
      <stop offset="1" stopColor="#226DFF" />
    </linearGradient>
    <linearGradient
      id="paint1_linear"
      x1="171"
      y1="583"
      x2="181.377"
      y2="868.565"
      gradientUnits="userSpaceOnUse"
    >
      <stop stopColor="#15429A" />
      <stop offset="1" stopColor="#2067F1" />
    </linearGradient>
    <linearGradient
      id="paint2_linear"
      x1="255"
      y1="320"
      x2="576"
      y2="-8.2938e-05"
      gradientUnits="userSpaceOnUse"
    >
      <stop offset="0.0142755" stopColor="#133B8B" />
      <stop offset="1" stopColor="#216AF8" />
    </linearGradient>
    <linearGradient
      id="paint3_linear"
      x1="576"
      y1="864"
      x2="258.24"
      y2="824.32"
      gradientUnits="userSpaceOnUse"
    >
      <stop stopColor="#144299" />
      <stop offset="1" stopColor="#1B57CC" />
    </linearGradient>
    <linearGradient
      id="paint4_linear"
      x1="432"
      y1="288"
      x2="432"
      y2="864"
      gradientUnits="userSpaceOnUse"
    >
      <stop stopColor="#216AF8" />
      <stop offset="1" stopColor="#1647A6" />
    </linearGradient>
    <linearGradient
      id="paint5_linear"
      x1="864"
      y1="288"
      x2="671"
      y2="-64"
      gradientUnits="userSpaceOnUse"
    >
      <stop stopColor="#15429B" />
      <stop offset="1" stopColor="#2168F4" />
    </linearGradient>
  </defs>
</svg>
